<?xml version="1.0" encoding="UTF-8"?>
<svg xmlns="http://www.w3.org/2000/svg" xmlns:xlink="http://www.w3.org/1999/xlink" width="128pt" height="105pt" viewBox="0 0 128 105" version="1.1">
<g id="surface1">
<path style="fill:none;stroke-width:25;stroke-linecap:butt;stroke-linejoin:miter;stroke:rgb(0%,0%,0%);stroke-opacity:1;stroke-miterlimit:10;" d="M 87.5 12.5 L 1192.5 12.5 C 1233.90625 12.5 1267.5 46.09375 1267.5 87.5 L 1267.5 962.5 C 1267.5 1003.90625 1233.90625 1037.5 1192.5 1037.5 L 87.5 1037.5 C 46.09375 1037.5 12.5 1003.90625 12.5 962.5 L 12.5 87.5 C 12.5 46.09375 46.09375 12.5 87.5 12.5 Z M 87.5 12.5 " transform="matrix(0.1,0,0,-0.1,0,105)"/>
<path style="fill:none;stroke-width:25;stroke-linecap:round;stroke-linejoin:miter;stroke:rgb(0%,0%,0%);stroke-opacity:1;stroke-miterlimit:10;" d="M 303.515625 625 C 303.515625 680.234375 258.710938 725 203.515625 725 C 148.28125 725 103.515625 680.234375 103.515625 625 C 103.515625 569.765625 148.28125 525 203.515625 525 C 258.710938 525 303.515625 569.765625 303.515625 625 L 303.515625 200 C 303.515625 158.59375 337.070312 125 378.515625 125 L 1101.484375 125 C 1142.929688 125 1176.484375 158.59375 1176.484375 200 L 1176.484375 600 M 601.796875 625 C 601.796875 680.234375 556.992188 725 501.796875 725 C 446.5625 725 401.796875 680.234375 401.796875 625 C 401.796875 569.765625 446.5625 525 501.796875 525 C 556.992188 525 601.796875 569.765625 601.796875 625 M 401.796875 625 L 401.796875 325 M 878.203125 625 C 878.203125 680.234375 833.4375 725 778.203125 725 C 723.007812 725 678.203125 680.234375 678.203125 625 C 678.203125 569.765625 723.007812 525 778.203125 525 C 833.4375 525 878.203125 569.765625 878.203125 625 L 878.203125 925 M 976.484375 525 L 976.484375 850 C 976.484375 891.40625 1010.078125 925 1051.484375 925 L 1101.484375 925 C 1142.929688 925 1176.484375 891.40625 1176.484375 850 M 976.484375 712.5 L 1136.484375 712.5 " transform="matrix(0.1,0,0,-0.1,0,105)"/>
</g>
</svg>
