<?xml version="1.0" encoding="UTF-8"?>
<svg xmlns="http://www.w3.org/2000/svg" xmlns:xlink="http://www.w3.org/1999/xlink" width="512pt" height="420pt" viewBox="0 0 512 420" version="1.1">
<g id="surface1">
<path style="fill:none;stroke-width:100;stroke-linecap:butt;stroke-linejoin:miter;stroke:rgb(0%,0%,0%);stroke-opacity:1;stroke-miterlimit:10;" d="M 350 50 L 4770 50 C 4935.664062 50 5070 184.296875 5070 350 L 5070 3850 C 5070 4015.664062 4935.664062 4150 4770 4150 L 350 4150 C 184.296875 4150 50 4015.664062 50 3850 L 50 350 C 50 184.296875 184.296875 50 350 50 Z M 350 50 " transform="matrix(0.1,0,0,-0.1,0,420)"/>
<path style="fill:none;stroke-width:100;stroke-linecap:round;stroke-linejoin:miter;stroke:rgb(0%,0%,0%);stroke-opacity:1;stroke-miterlimit:10;" d="M 1213.984375 2500 C 1213.984375 2720.898438 1034.921875 2900 813.984375 2900 C 593.085938 2900 413.984375 2720.898438 413.984375 2500 C 413.984375 2279.101562 593.085938 2100 813.984375 2100 C 1034.921875 2100 1213.984375 2279.101562 1213.984375 2500 L 1213.984375 800 C 1213.984375 634.296875 1348.320312 500 1513.984375 500 L 4406.015625 500 C 4571.679688 500 4706.015625 634.296875 4706.015625 800 L 4706.015625 2400 M 2407.109375 2500 C 2407.109375 2720.898438 2228.046875 2900 2007.109375 2900 C 1786.210938 2900 1607.109375 2720.898438 1607.109375 2500 C 1607.109375 2279.101562 1786.210938 2100 2007.109375 2100 C 2228.046875 2100 2407.109375 2279.101562 2407.109375 2500 M 1607.109375 2500 L 1607.109375 1300 M 3512.890625 2500 C 3512.890625 2720.898438 3333.789062 2900 3112.890625 2900 C 2891.953125 2900 2712.890625 2720.898438 2712.890625 2500 C 2712.890625 2279.101562 2891.953125 2100 3112.890625 2100 C 3333.789062 2100 3512.890625 2279.101562 3512.890625 2500 L 3512.890625 3700 M 3906.015625 2100 L 3906.015625 3400 C 3906.015625 3565.664062 4040.3125 3700 4206.015625 3700 L 4406.015625 3700 C 4571.679688 3700 4706.015625 3565.664062 4706.015625 3400 M 3906.015625 2850 L 4546.015625 2850 " transform="matrix(0.1,0,0,-0.1,0,420)"/>
</g>
</svg>
